<?xml version="1.0" encoding="UTF-8"?><svg id="Capa_1" xmlns="http://www.w3.org/2000/svg" viewBox="0 0 778.26 778.26"><defs><style>.cls-1{fill:#274481;}.cls-2{fill:#fff;}.cls-3{fill:#32599e;}</style></defs><rect class="cls-2" x="0" width="778.26" height="778.26"/><path class="cls-3" d="M284.73,263.85l-9.69-2.42-181.94-43.32c-4.39-1.05-7.94-4.25-9.43-8.52l-13.72-39.3c-1.01-2.89,1.59-5.82,4.56-5.06,4.86,1.25,11.51,5.11,16.39,16.24,3.64,8.29,8.25,14.87,12.38,19.71,5.34,6.27,12.72,10.44,20.84,11.83l204.07,34.78c3.26.56,6.58-.3,9.22-2.29,7.1-5.35,23.56-13.72,41.6,4.79l4.06,25.62-21.24,22.81h-46.86l-20.31-17.5-9.92-17.37Z"/><path class="cls-3" d="M134.69,293.35l-1.38,3.05c-1.29,2.85.21,6.19,3.21,7.11l136.75,42.14h9.04l14.05-10.4s8.89-20,2.29-20.29c-5.97-.26-134.23-20.74-158.42-24.61-2.32-.37-4.59.86-5.55,2.99Z"/><path class="cls-3" d="M724.51,363.33c-1.28.09-2.48.67-3.46,1.5-12.16,10.35-21.16,14.62-26.94,16.34-3.88,1.16-8.02,1-11.82-.38-63.61-23.11-162.12-82.93-202.12-107.96l35.35-33.92c7.67-7.36,11.82-17.78,10.77-28.36-.6-6.06-2.86-12.46-8.38-17.79-15.77-15.23-51.13,4.35-51.13,4.35l-111.51,64.44-50.03,18.62-15.77,26.27,13.48,15.27-15.79,4.74s-22.27,13.3-10.42,30.44c1.5,2.17,3.95,3.5,6.58,3.61,7.65.33,25.67-.6,47.23-13.41l27.83,4.49s47.9-19.53,76.77-42.64c53.44,19.49,229.53,83.62,243.7,87.72,9.34,2.7,16.75,2.39,21.48,1.58,3.39-.58,6.46-2.33,8.66-4.98,5.26-6.34,16.13-19.82,17.91-25.15,1.42-4.25-.57-4.93-2.38-4.8Z"/><path class="cls-1" d="M278.65,325.9l-5.25-127.17c-.1-2.33.56-4.63,1.89-6.56,2.25-3.26,6.53-7.72,13.51-8.69,2.65-.37,5.21,1.14,6.2,3.63l27.01,68.62c2.46,6.25,6.19,11.95,11.14,16.48,7.71,7.06,19.72,12.73,33.49.38,0,0,3.09-2.49,1.93.03s-32.66,41.53-85.88,62.31c-1.24.49-2.67-.07-3.21-1.3-.25-.57-.43-1.33-.5-2.35-.31-4.58-.35-5.4-.35-5.4Z"/><path class="cls-1" d="M294.9,345.66l26.16-13.62s9.33-6.63,20.41,3.22l73.17,38.94c2.81,1.5,3.74,5.07,2.01,7.75l-3.04,4.7c-1.42,2.19-4.19,3.07-6.61,2.08-17.48-7.14-85.25-34.1-108.27-32.59-1.38.09-2.67-.65-3.31-1.88l-2.01-3.86c-.9-1.72-.23-3.84,1.49-4.74Z"/><path class="cls-3" d="M722.16,427.85c-40.63,0-75.45,24.87-90.08,60.22-6.38-1.31-12.98-2-19.75-2-41.77,0-77.39,26.28-91.25,63.2-9.55-3.13-19.76-4.83-30.36-4.83-29.94,0-56.72,13.51-74.6,34.76-14.32-24.57-39.08-42.3-68.21-47.12-10.36-42.69-48.82-74.39-94.7-74.39-37.99,0-70.9,21.74-86.97,53.46-8.67-2.77-17.91-4.27-27.51-4.27-38.99,0-72.2,24.72-84.82,59.35-21.08,1.98-39.95,11.51-53.92,25.85v121.05h0v64.33h778.26v-331.84c-15.86-11.19-35.21-17.76-56.1-17.76Z"/></svg>