<svg width="967" height="324" viewBox="0 0 967 324" fill="none" xmlns="http://www.w3.org/2000/svg">
<g clip-path="url(#clip0_62_141)">
<path d="M118.537 109.844L114.503 108.837L38.7588 90.8021C36.9312 90.3649 35.4532 89.0327 34.8329 87.2551L29.1211 70.894C28.7006 69.6908 29.7831 68.471 31.0195 68.7874C33.0428 69.3078 35.8113 70.9148 37.8429 75.5483C39.3583 78.9996 41.2775 81.7389 42.9968 83.7539C45.22 86.3642 48.2923 88.1002 51.6728 88.6789L136.63 103.158C137.987 103.391 139.369 103.033 140.468 102.205C143.424 99.9776 150.277 96.4931 157.787 104.199L159.477 114.865L150.635 124.361H131.126L122.671 117.076L118.541 109.844H118.537Z" fill="white"/>
<path d="M56.0732 122.125L55.4987 123.395C54.9617 124.582 55.5862 125.972 56.8351 126.355L113.766 143.899H117.529L123.379 139.569C123.379 139.569 127.08 131.243 124.332 131.122C121.847 131.014 68.4502 122.488 58.3796 120.877C57.4138 120.723 56.4687 121.235 56.0691 122.121L56.0732 122.125Z" fill="white"/>
<path d="M301.623 151.259C301.09 151.297 300.591 151.538 300.183 151.884C295.12 156.192 291.374 157.97 288.967 158.686C287.352 159.169 285.628 159.102 284.046 158.528C257.565 148.907 216.554 124.003 199.901 113.583L214.618 99.4614C217.811 96.3973 219.539 92.0594 219.102 87.6548C218.852 85.1319 217.911 82.4675 215.613 80.2485C209.048 73.9081 194.327 82.0595 194.327 82.0595L147.904 108.887L127.075 116.638L120.51 127.575L126.122 133.932L119.549 135.905C119.549 135.905 110.277 141.442 115.211 148.578C115.835 149.481 116.855 150.035 117.95 150.081C121.135 150.218 128.637 149.831 137.612 144.498L149.198 146.367C149.198 146.367 169.14 138.237 181.159 128.616C203.407 136.73 276.715 163.428 282.614 165.135C286.503 166.259 289.588 166.13 291.557 165.793C292.968 165.551 294.246 164.823 295.162 163.719C297.352 161.08 301.877 155.468 302.618 153.249C303.209 151.48 302.381 151.197 301.627 151.251L301.623 151.259Z" fill="white"/>
<path d="M116.006 135.677L113.82 82.7339C113.778 81.7639 114.053 80.8064 114.607 80.0029C115.544 78.6457 117.325 76.789 120.231 76.3852C121.335 76.2311 122.4 76.8598 122.812 77.8964L134.057 106.464C135.081 109.066 136.634 111.439 138.695 113.325C141.905 116.264 146.904 118.624 152.637 113.483C152.637 113.483 153.924 112.446 153.441 113.495C152.958 114.544 139.844 130.785 117.688 139.436C117.171 139.64 116.576 139.407 116.351 138.895C116.247 138.657 116.172 138.341 116.143 137.916C116.014 136.01 115.997 135.668 115.997 135.668L116.006 135.677Z" fill="#F0F0F0"/>
<path d="M122.771 143.903L133.662 138.233C133.662 138.233 137.546 135.473 142.159 139.573L172.62 155.784C173.79 156.409 174.177 157.895 173.457 159.011L172.191 160.968C171.6 161.879 170.447 162.246 169.44 161.833C162.162 158.861 133.949 147.637 124.365 148.266C123.791 148.303 123.254 147.995 122.987 147.483L122.15 145.876C121.776 145.16 122.055 144.278 122.771 143.903Z" fill="#F0F0F0"/>
<path d="M300.645 178.12C283.73 178.12 269.234 188.473 263.143 203.19C260.487 202.645 257.74 202.357 254.921 202.357C237.532 202.357 222.703 213.298 216.933 228.668C212.957 227.365 208.706 226.658 204.293 226.658C191.829 226.658 180.68 232.282 173.236 241.129C167.275 230.9 156.967 223.519 144.84 221.512C140.527 203.74 124.515 190.542 105.415 190.542C89.599 190.542 75.8981 199.593 69.2079 212.799C65.5985 211.645 61.7517 211.021 57.7551 211.021C41.5231 211.021 27.6973 221.312 22.4434 235.729C13.6676 236.553 5.81173 240.521 -0.00416565 246.491V296.885V323.667H323.996V185.518C317.393 180.859 309.337 178.124 300.641 178.124L300.645 178.12Z" fill="white"/>
</g>
<path d="M387.983 222.92C383.023 222.92 378.263 222.56 373.703 221.84C369.143 221.12 364.983 220.12 361.223 218.84C357.543 217.48 354.343 216 351.623 214.4L362.543 193.52C365.663 195.28 368.783 196.76 371.903 197.96C375.103 199.08 378.263 199.92 381.383 200.48C384.583 201.04 387.743 201.32 390.863 201.32C393.343 201.32 395.383 201.12 396.983 200.72C398.663 200.32 399.903 199.76 400.703 199.04C401.583 198.24 402.023 197.36 402.023 196.4C402.023 195.12 401.303 194.08 399.863 193.28C398.423 192.48 396.503 191.76 394.103 191.12C391.783 190.48 389.183 189.84 386.303 189.2C383.503 188.48 380.663 187.6 377.783 186.56C374.903 185.44 372.263 184.04 369.863 182.36C367.543 180.68 365.663 178.56 364.223 176C362.783 173.44 362.063 170.32 362.063 166.64C362.063 160.24 363.743 154.68 367.103 149.96C370.543 145.24 375.423 141.6 381.743 139.04C388.143 136.4 395.743 135.08 404.543 135.08C410.783 135.08 416.583 135.72 421.943 137C427.383 138.2 432.063 139.96 435.983 142.28L425.783 162.92C422.423 160.84 418.743 159.28 414.743 158.24C410.823 157.2 406.823 156.68 402.743 156.68C400.023 156.68 397.743 156.96 395.903 157.52C394.063 158 392.663 158.68 391.703 159.56C390.823 160.44 390.383 161.36 390.383 162.32C390.383 163.6 391.103 164.68 392.543 165.56C393.983 166.36 395.903 167.08 398.303 167.72C400.703 168.28 403.303 168.92 406.103 169.64C408.983 170.28 411.823 171.12 414.623 172.16C417.503 173.12 420.143 174.44 422.543 176.12C424.943 177.72 426.863 179.8 428.303 182.36C429.743 184.84 430.463 187.92 430.463 191.6C430.463 197.84 428.743 203.32 425.303 208.04C421.863 212.68 416.943 216.32 410.543 218.96C404.223 221.6 396.703 222.92 387.983 222.92ZM462.41 203.72L466.61 171.92L504.05 137H536.57L493.49 176.12L474.29 192.68L462.41 203.72ZM433.49 221L450.29 137H478.13L461.33 221H433.49ZM490.25 221L469.97 188.36L490.97 169.4L521.81 221H490.25ZM540.285 221L547.605 184.16L550.725 201.08L525.405 137H553.845L571.125 181.04H553.245L588.645 137H617.085L566.325 201.08L575.925 184.16L568.605 221H540.285ZM603.881 221L620.681 137H649.001L636.641 199.04H674.561L670.121 221H603.881ZM677.943 221L694.743 137H723.063L706.263 221H677.943ZM719.896 221L736.696 137H759.736L782.176 191.84H769.936L813.136 137H837.256L820.696 221H794.896L803.656 175.88L807.736 175.64L778.696 213.44H766.216L749.896 175.52L754.696 175.88L745.696 221H719.896ZM834.388 221L851.188 137H879.508L862.708 221H834.388ZM894.582 221L906.942 158.96H882.342L886.782 137H964.302L959.862 158.96H935.262L922.902 221H894.582Z" fill="white"/>
<defs>
<clipPath id="clip0_62_141">
<rect width="324" height="324" fill="white"/>
</clipPath>
</defs>
</svg>
